<svg id="Layer_1" data-name="Layer 1" xmlns="http://www.w3.org/2000/svg" viewBox="0 0 351.02 119.83"><defs><style>.cls-1,.cls-2{fill:#231f20;}.cls-1{stroke:#231f20;stroke-miterlimit:10;stroke-width:4px;}</style></defs><path class="cls-1" d="M2.35,70.75a4.37,4.37,0,0,1,5.71-2.51,43.13,43.13,0,0,0,15.44,3c11.21,0,17.75-5.22,17.75-12.77,0-7-4.53-11-16-14.88C11.42,39.21,2.86,32.88,2.86,22.33,2.86,10.66,13.81,2,30.3,2A48.59,48.59,0,0,1,45.07,4.07a3.93,3.93,0,0,1,2.64,5.12l-.13.33A4.38,4.38,0,0,1,42.1,12a38.39,38.39,0,0,0-12.18-2c-11.58,0-16,6.11-16,11.22,0,7,5.17,10.43,16.87,14.43,14.36,4.89,21.66,11,21.66,22,0,11.56-9.7,21.55-29.71,21.55a54.72,54.72,0,0,1-18-3.08A3.94,3.94,0,0,1,2.2,71.17Z"/><path class="cls-1" d="M66.46,115.13,41.72,48.27A4.06,4.06,0,0,1,45.8,43h2.68a4.32,4.32,0,0,1,4.1,2.74L64.81,79.85c3.65,10.11,6.8,19.21,9.07,28h.25c2.39-8.67,5.92-18.11,9.69-27.88L97.15,45.62A4.3,4.3,0,0,1,101.21,43h2.44a4,4,0,0,1,4,5.41l-27.1,66.86a4.31,4.31,0,0,1-4,2.59h-6A4.3,4.3,0,0,1,66.46,115.13Z"/><path class="cls-1" d="M147.66,50.74H123.3a4.16,4.16,0,0,0-4.31,4v19a4.16,4.16,0,0,0,4.31,4h28.14a4.16,4.16,0,0,1,4.31,4v.11a4.16,4.16,0,0,1-4.31,4H112.35a4.16,4.16,0,0,1-4.31-4V15a4.16,4.16,0,0,1,4.31-4h37.2a4.16,4.16,0,0,1,4.31,4v.11a4.16,4.16,0,0,1-4.31,4H123.3a4.16,4.16,0,0,0-4.31,4V38.75a4.16,4.16,0,0,0,4.31,4h24.36a4.16,4.16,0,0,1,4.31,4h0A4.16,4.16,0,0,1,147.66,50.74Z"/><path class="cls-1" d="M314.86,51c0,25.77-17.46,39.43-38.77,39.43-22,0-37.52-15.33-37.52-38,0-23.77,16.47-39.32,38.76-39.32C300.12,13.13,314.86,28.79,314.86,51Zm-64.77,1.22c0,16,9.66,30.32,26.62,30.32s26.75-14.1,26.75-31.09c0-14.89-8.66-30.44-26.62-30.44S250.09,35.79,250.09,52.22Z"/><path class="cls-1" d="M170.94,50.69H153.76a4.1,4.1,0,0,1-4.32-3.84v-.21a4.1,4.1,0,0,1,4.32-3.84H208a4.1,4.1,0,0,1,4.31,3.84v.21A4.1,4.1,0,0,1,208,50.69H190.64a4.1,4.1,0,0,0-4.31,3.83v56.27a4.09,4.09,0,0,1-4.32,3.83h-2.45a4.09,4.09,0,0,1-4.31-3.83V54.52A4.1,4.1,0,0,0,170.94,50.69Z"/><path class="cls-2" d="M351,47c-14.58-.15-16.58-4.61-16.53-8.59a39,39,0,0,1,1.76-9.55A38,38,0,0,0,338,19.42c.13-10.47-12.14-15-29.59-15.21l-4.32,0L304,10.42l3.7,0c12.11.12,16.17,3.81,16.1,10a28.71,28.71,0,0,1-1.53,8.06,30.39,30.39,0,0,0-1.55,8.64c-.29,7.28,5.42,11,14.64,12.44v.23c-9.26,1.16-15.05,5-14.94,12.25a29.9,29.9,0,0,0,1.34,8.67,29.7,29.7,0,0,1,1.34,8.21c-.08,6.37-4.85,9.85-16.35,9.73l-3.69,0L303,94.87l4.31,0c17.05.17,29.83-3.79,30-15.29a37.65,37.65,0,0,0-1.53-9.35,35.85,35.85,0,0,1-1.53-9.23c0-3.53,2.15-8.4,16.73-8.25Z"/><path class="cls-2" d="M200.22,46c15.81.16,18.09-4.25,18.14-8.24a35.71,35.71,0,0,0-1.67-9.57A35.38,35.38,0,0,1,215,18.74C215.15,8.27,228.57,4,247.51,4.16l4.67,0-.07,6.26-4,0C235,10.3,230.46,13.89,230.38,20a26.64,26.64,0,0,0,1.47,8.1,28.28,28.28,0,0,1,1.45,8.66c.13,7.29-6.15,10.87-16.19,12.13v.23c10,1.35,16.2,5.29,15.89,12.57a27.84,27.84,0,0,1-1.66,8.63,27.14,27.14,0,0,0-1.66,8.18c-.08,6.37,5,10,17.48,10.09l4,0-.08,6.26-4.68-.05c-18.49-.19-32.25-4.43-32.11-15.93a34.59,34.59,0,0,1,1.9-9.31,34.26,34.26,0,0,0,1.89-9.21c0-3.52-2.13-8.44-17.94-8.6Z"/></svg>